<mxfile host="app.diagrams.net" modified="2021-10-18T02:27:59.214Z" agent="5.0 (Windows NT 6.1; Win64; x64) AppleWebKit/537.36 (KHTML, like Gecko) Chrome/94.0.4606.81 Safari/537.36" etag="p4svgH1peU4eJXLbBkTt" version="15.5.4" type="github">
  <diagram id="GRsntV2cwEwflnzZ1A9t" name="Page-1">
    <mxGraphModel dx="981" dy="548" grid="1" gridSize="10" guides="1" tooltips="1" connect="1" arrows="1" fold="1" page="1" pageScale="1" pageWidth="827" pageHeight="1169" math="0" shadow="0">
      <root>
        <mxCell id="0" />
        <mxCell id="1" parent="0" />
        <mxCell id="6D9asjFF9piGMcfMGxkZ-5" value="" style="edgeStyle=orthogonalEdgeStyle;rounded=0;orthogonalLoop=1;jettySize=auto;html=1;" edge="1" parent="1" source="6D9asjFF9piGMcfMGxkZ-1" target="6D9asjFF9piGMcfMGxkZ-4">
          <mxGeometry relative="1" as="geometry" />
        </mxCell>
        <mxCell id="6D9asjFF9piGMcfMGxkZ-1" value="123" style="text;html=1;align=center;verticalAlign=middle;resizable=0;points=[];autosize=1;strokeColor=none;fillColor=none;" vertex="1" parent="1">
          <mxGeometry x="380" y="270" width="40" height="20" as="geometry" />
        </mxCell>
        <mxCell id="6D9asjFF9piGMcfMGxkZ-7" value="" style="edgeStyle=orthogonalEdgeStyle;rounded=0;orthogonalLoop=1;jettySize=auto;html=1;" edge="1" parent="1" source="6D9asjFF9piGMcfMGxkZ-4" target="6D9asjFF9piGMcfMGxkZ-6">
          <mxGeometry relative="1" as="geometry" />
        </mxCell>
        <mxCell id="6D9asjFF9piGMcfMGxkZ-4" value="123123" style="text;html=1;align=center;verticalAlign=middle;resizable=0;points=[];autosize=1;strokeColor=none;fillColor=none;" vertex="1" parent="1">
          <mxGeometry x="490" y="270" width="60" height="20" as="geometry" />
        </mxCell>
        <mxCell id="6D9asjFF9piGMcfMGxkZ-6" value="433" style="text;html=1;align=center;verticalAlign=middle;resizable=0;points=[];autosize=1;strokeColor=none;fillColor=none;" vertex="1" parent="1">
          <mxGeometry x="500" y="170" width="40" height="20" as="geometry" />
        </mxCell>
        <mxCell id="6D9asjFF9piGMcfMGxkZ-8" value="" style="strokeWidth=2;html=1;shape=mxgraph.flowchart.annotation_2;align=left;labelPosition=right;pointerEvents=1;" vertex="1" parent="1">
          <mxGeometry x="520" y="230" width="50" height="100" as="geometry" />
        </mxCell>
      </root>
    </mxGraphModel>
  </diagram>
</mxfile>
